<svg width="46" height="28" viewBox="0 0 46 28" fill="none" xmlns="http://www.w3.org/2000/svg">
<g clip-path="url(#clip0_126_1136)">
<g clip-path="url(#clip1_126_1136)">
<path d="M13.0089 9.99877C13.0089 10.5558 13.0691 11.0075 13.1745 11.3387C13.295 11.6699 13.4455 12.0312 13.6563 12.4227C13.7316 12.5431 13.7617 12.6635 13.7617 12.7689C13.7617 12.9195 13.6714 13.07 13.4756 13.2206L12.5272 13.8529C12.3917 13.9432 12.2562 13.9884 12.1357 13.9884C11.9852 13.9884 11.8346 13.9131 11.6841 13.7776C11.4733 13.5518 11.2926 13.3109 11.1421 13.07C10.9915 12.8141 10.841 12.528 10.6754 12.1818C9.50107 13.5668 8.02566 14.2594 6.24915 14.2594C4.98451 14.2594 3.97581 13.8981 3.23811 13.1754C2.5004 12.4528 2.12402 11.4892 2.12402 10.2848C2.12402 9.00513 2.57568 7.96632 3.49405 7.18345C4.41241 6.40058 5.63188 6.00914 7.18257 6.00914C7.69444 6.00914 8.22138 6.05431 8.77842 6.12958C9.33546 6.20486 9.90756 6.3253 10.5098 6.4608V5.36177C10.5098 4.21757 10.2689 3.41965 9.80217 2.95294C9.32041 2.48622 8.50742 2.2604 7.34818 2.2604C6.82124 2.2604 6.27926 2.32062 5.72221 2.45611C5.16517 2.59161 4.62319 2.75722 4.09625 2.96799C3.85537 3.07338 3.67471 3.1336 3.56932 3.16371C3.46394 3.19382 3.38866 3.20887 3.32844 3.20887C3.11767 3.20887 3.01228 3.05832 3.01228 2.74216V2.00446C3.01228 1.76358 3.04239 1.58291 3.11767 1.47753C3.19294 1.37214 3.32844 1.26675 3.53921 1.16137C4.06614 0.890374 4.69846 0.664546 5.43617 0.483884C6.17387 0.288166 6.95674 0.197835 7.78478 0.197835C9.57634 0.197835 10.8861 0.604325 11.7292 1.41731C12.5573 2.23029 12.9788 3.46481 12.9788 5.12088V9.99877H13.0089ZM6.89652 12.2872C7.39334 12.2872 7.90522 12.1968 8.4472 12.0162C8.98919 11.8355 9.47096 11.5043 9.87745 11.0526C10.1183 10.7666 10.299 10.4504 10.3893 10.0891C10.4797 9.72777 10.5399 9.29117 10.5399 8.7793V8.14698C10.1033 8.04159 9.63656 7.95126 9.1548 7.89104C8.67303 7.83082 8.20632 7.80071 7.73961 7.80071C6.73091 7.80071 5.99321 7.99643 5.49639 8.40292C4.99957 8.80941 4.75868 9.38151 4.75868 10.1343C4.75868 10.8419 4.93934 11.3688 5.31572 11.7301C5.67705 12.1065 6.20398 12.2872 6.89652 12.2872ZM18.9858 13.9131C18.7148 13.9131 18.5342 13.868 18.4137 13.7626C18.2933 13.6722 18.1879 13.4615 18.0976 13.1754L14.5596 1.53775C14.4693 1.23664 14.4241 1.04093 14.4241 0.93554C14.4241 0.694656 14.5446 0.55916 14.7854 0.55916H16.2608C16.5469 0.55916 16.7426 0.604325 16.848 0.709712C16.9684 0.800043 17.0588 1.01082 17.1491 1.29686L19.6784 11.2634L22.027 1.29686C22.1023 0.99576 22.1926 0.800043 22.313 0.709712C22.4335 0.61938 22.6443 0.55916 22.9152 0.55916H24.1197C24.4057 0.55916 24.6014 0.604325 24.7219 0.709712C24.8423 0.800043 24.9477 1.01082 25.0079 1.29686L27.3866 11.3838L29.9912 1.29686C30.0815 0.99576 30.1869 0.800043 30.2923 0.709712C30.4127 0.61938 30.6084 0.55916 30.8794 0.55916H32.2796C32.5205 0.55916 32.656 0.679601 32.656 0.93554C32.656 1.01082 32.6409 1.08609 32.6258 1.17642C32.6108 1.26675 32.5807 1.3872 32.5205 1.5528L28.8922 13.1905C28.8018 13.4916 28.6964 13.6873 28.576 13.7776C28.4556 13.868 28.2598 13.9282 28.0039 13.9282H26.7092C26.4231 13.9282 26.2274 13.883 26.1069 13.7776C25.9865 13.6722 25.8811 13.4765 25.8209 13.1754L23.4873 3.46481L21.1688 13.1604C21.0936 13.4615 21.0032 13.6572 20.8828 13.7626C20.7624 13.868 20.5516 13.9131 20.2806 13.9131H18.9858ZM38.3318 14.3196C37.5489 14.3196 36.766 14.2293 36.0133 14.0486C35.2605 13.868 34.6733 13.6722 34.2819 13.4464C34.041 13.3109 33.8754 13.1604 33.8152 13.0249C33.755 12.8894 33.7249 12.7388 33.7249 12.6033V11.8355C33.7249 11.5193 33.8453 11.3688 34.0711 11.3688C34.1615 11.3688 34.2518 11.3838 34.3421 11.414C34.4325 11.4441 34.568 11.5043 34.7185 11.5645C35.2304 11.7903 35.7874 11.971 36.3746 12.0914C36.9768 12.2119 37.5639 12.2721 38.1662 12.2721C39.1146 12.2721 39.8523 12.1065 40.3642 11.7753C40.8761 11.4441 41.1471 10.9623 41.1471 10.345C41.1471 9.92349 41.0116 9.57722 40.7406 9.29117C40.4696 9.00513 39.9577 8.74919 39.22 8.5083L37.037 7.83082C35.938 7.48455 35.125 6.97267 34.6282 6.29519C34.1314 5.63276 33.8754 4.89506 33.8754 4.11219C33.8754 3.47987 34.0109 2.92283 34.2819 2.44106C34.5529 1.95929 34.9142 1.53775 35.3659 1.20653C35.8175 0.860264 36.3294 0.604325 36.9316 0.423663C37.5338 0.243001 38.1662 0.167725 38.8286 0.167725C39.1598 0.167725 39.5061 0.18278 39.8373 0.227945C40.1836 0.273111 40.4997 0.333332 40.8159 0.393553C41.117 0.468828 41.403 0.544104 41.674 0.634436C41.945 0.724767 42.1558 0.815098 42.3063 0.905429C42.5171 1.02587 42.6677 1.14631 42.758 1.28181C42.8483 1.40225 42.8935 1.56786 42.8935 1.77863V2.48622C42.8935 2.80238 42.773 2.96799 42.5472 2.96799C42.4268 2.96799 42.2311 2.90777 41.9751 2.78733C41.117 2.39589 40.1534 2.20018 39.0845 2.20018C38.2264 2.20018 37.5489 2.33567 37.0822 2.62172C36.6155 2.90777 36.3746 3.34437 36.3746 3.96163C36.3746 4.38318 36.5251 4.7445 36.8262 5.03055C37.1273 5.3166 37.6844 5.60265 38.4823 5.85859L40.6201 6.53607C41.7041 6.88234 42.487 7.36411 42.9537 7.98137C43.4204 8.59863 43.6462 9.30623 43.6462 10.0891C43.6462 10.7365 43.5107 11.3236 43.2548 11.8355C42.9838 12.3474 42.6225 12.799 42.1558 13.1604C41.6891 13.5367 41.132 13.8077 40.4847 14.0035C39.8072 14.2142 39.0996 14.3196 38.3318 14.3196Z" fill="white"/>
<path fill-rule="evenodd" clip-rule="evenodd" d="M41.1768 21.6364C36.2236 25.2949 29.0273 27.237 22.8396 27.237C14.1678 27.237 6.35413 24.0302 0.452491 18.7007C-0.0142202 18.2791 0.407325 17.707 0.964368 18.0383C7.34777 21.7418 15.2216 23.9851 23.3665 23.9851C28.8616 23.9851 34.8988 22.8409 40.4542 20.4922C41.2822 20.1159 41.9898 21.0342 41.1768 21.6364Z" fill="white"/>
<path fill-rule="evenodd" clip-rule="evenodd" d="M43.2389 19.2878C42.6066 18.4749 39.0536 18.8964 37.4427 19.0921C36.9609 19.1524 36.8856 18.7308 37.3222 18.4146C40.1526 16.4274 44.8047 16.9995 45.3467 17.6619C45.8887 18.3394 45.1961 22.9914 42.5464 25.2196C42.1399 25.5659 41.7485 25.3852 41.9291 24.9335C42.5313 23.4431 43.8713 20.0858 43.2389 19.2878Z" fill="white"/>
</g>
</g>
<defs>
<clipPath id="clip0_126_1136">
<rect width="45.7678" height="27.4046" fill="white"/>
</clipPath>
<clipPath id="clip1_126_1136">
<rect width="45.7678" height="27.4005" fill="white" transform="translate(0 0.00219727)"/>
</clipPath>
</defs>
</svg>
