<svg width="36" height="34" viewBox="0 0 36 34" fill="none" xmlns="http://www.w3.org/2000/svg">
<g clip-path="url(#clip0_126_1144)">
<g clip-path="url(#clip1_126_1144)">
<path d="M4.11175 -21.8128H28.3094L3.18987 52.6138C2.93169 53.3786 2.44017 54.0431 1.7845 54.5139C1.12883 54.9847 0.342028 55.238 -0.465157 55.2382H-19.2969C-19.9085 55.2383 -20.5113 55.0927 -21.0555 54.8136C-21.5996 54.5345 -22.0695 54.1298 -22.4263 53.633C-22.783 53.1362 -23.0163 52.5617 -23.1069 51.9568C-23.1975 51.352 -23.1428 50.7343 -22.9473 50.1548L0.455803 -19.1884C0.713869 -19.9535 1.20546 -20.6184 1.86133 -21.0893C2.5172 -21.5603 3.3043 -21.8137 4.11175 -21.8137V-21.8128Z" fill="white"/>
<path d="M39.2746 28.1077H0.902897C0.546157 28.1073 0.197568 28.2143 -0.0974609 28.4149C-0.39249 28.6154 -0.620281 28.9002 -0.751162 29.232C-0.882042 29.5639 -0.909943 29.9275 -0.831231 30.2754C-0.752518 30.6234 -0.570841 30.9396 -0.309866 31.1828L24.3469 54.1965C25.0648 54.8662 26.01 55.2385 26.9917 55.2383H48.7193L39.2746 28.1077Z" fill="white"/>
<path d="M4.11172 -21.8128C3.29545 -21.816 2.49956 -21.558 1.84031 -21.0767C1.18106 -20.5953 0.692995 -19.9158 0.447405 -19.1373L-22.9185 50.0916C-23.1272 50.6732 -23.1927 51.2964 -23.1095 51.9087C-23.0263 52.521 -22.7969 53.1042 -22.4406 53.609C-22.0844 54.1139 -21.6118 54.5255 -21.0628 54.8091C-20.5138 55.0926 -19.9046 55.2398 -19.2867 55.2381H0.0310688C0.750546 55.1096 1.42301 54.7924 1.97977 54.3189C2.53653 53.8454 2.95763 53.2326 3.20006 52.5431L7.85967 38.8105L24.5038 54.3348C25.2013 54.9118 26.0763 55.2308 26.9814 55.2381H48.6281L39.1341 28.1075L11.458 28.114L28.3968 -21.8128H4.11172Z" fill="white"/>
<path d="M35.0168 -19.1921C34.7591 -19.9559 34.2682 -20.6197 33.6133 -21.0898C32.9585 -21.56 32.1726 -21.8128 31.3664 -21.8127H4.39844C5.20457 -21.8127 5.99039 -21.5598 6.64524 -21.0897C7.30009 -20.6195 7.79099 -19.9559 8.04881 -19.1921L31.4528 50.1539C31.6485 50.7335 31.7033 51.3514 31.6128 51.9564C31.5223 52.5614 31.289 53.1361 30.9323 53.633C30.5755 54.13 30.1056 54.5349 29.5614 54.8142C29.0171 55.0934 28.4142 55.2391 27.8025 55.2392H54.7714C55.383 55.239 55.9858 55.0932 56.53 54.8138C57.0741 54.5345 57.5439 54.1296 57.9005 53.6327C58.2571 53.1357 58.4903 52.5611 58.5808 51.9561C58.6713 51.3512 58.6164 50.7335 58.4208 50.1539L35.0168 -19.1921Z" fill="white"/>
</g>
</g>
<defs>
<clipPath id="clip0_126_1144">
<rect width="32.7002" height="30.8148" fill="white" transform="translate(1.38574 1.3053)"/>
</clipPath>
<clipPath id="clip1_126_1144">
<rect width="81.774" height="77.0528" fill="white" transform="translate(-23.1494 -21.8137)"/>
</clipPath>
</defs>
</svg>
