<svg width="20" height="26" viewBox="0 0 20 26" fill="none" xmlns="http://www.w3.org/2000/svg">
<path fill-rule="evenodd" clip-rule="evenodd" d="M5.15234 17.0874H4.22401C1.90042 17.0874 0 14.6034 0 11.5681C0 9.06333 1.29378 6.93506 3.05131 6.24548C3.16442 2.75999 5.34874 0 8.02666 0C9.46903 0 10.7684 0.80113 11.6779 2.08156C12.0864 1.88387 12.5281 1.77585 12.989 1.77585C15.0752 1.77585 16.7689 3.98831 16.7689 6.71348V6.71702C18.086 7.65422 18.9847 9.48102 18.9847 11.5681C18.9847 13.9607 17.8033 16.0108 16.1649 16.7717V20.9261H17.8962C18.0197 20.423 18.3809 20.0584 18.8069 20.0584C19.3345 20.0584 19.7629 20.6179 19.7629 21.3072C19.7629 21.9965 19.3345 22.5561 18.8069 22.5561C18.3746 22.5561 18.009 22.1806 17.8909 21.666H15.8817C15.8066 21.666 15.7346 21.627 15.6815 21.5576C15.6284 21.4882 15.5986 21.3941 15.5986 21.296V16.9774C15.3225 17.0507 15.0414 17.0876 14.7597 17.0874H9.49148V20.0228H12.9801C13.0552 20.0228 13.1272 20.0618 13.1803 20.1311C13.2334 20.2005 13.2633 20.2946 13.2633 20.3927V23.5541C13.653 23.7118 13.9365 24.1867 13.9365 24.7473C13.9365 25.4366 13.508 25.9962 12.9804 25.9962C12.4527 25.9962 12.0244 25.4366 12.0244 24.7473C12.0244 24.187 12.3075 23.7123 12.6969 23.5544V20.7626H9.49148V21.6012C9.88776 21.7536 10.1774 22.2327 10.1774 22.7995C10.1774 23.4887 9.74901 24.0484 9.22137 24.0484C8.69374 24.0484 8.26534 23.4887 8.26534 22.7995C8.26534 22.2452 8.54228 21.7749 8.92513 21.6118V17.0874H5.71868V23.5541C6.10849 23.7117 6.39199 24.1866 6.39199 24.7473C6.39199 25.4366 5.96359 25.9962 5.43595 25.9962C4.90828 25.9962 4.47992 25.4366 4.47992 24.7473C4.47992 24.187 4.76297 23.7124 5.15234 23.5544V20.7626H1.9469V23.5543C2.33646 23.7121 2.61976 24.1868 2.61976 24.7473C2.61976 25.4366 2.19136 25.9962 1.66372 25.9962C1.13605 25.9962 0.70769 25.4366 0.70769 24.7473C0.70769 24.1868 0.990944 23.7121 1.38055 23.5543V20.3927C1.38055 20.2946 1.41038 20.2005 1.46349 20.1311C1.5166 20.0618 1.58862 20.0228 1.66372 20.0228H5.15234V17.0874ZM12.9801 24.2383C12.7652 24.2385 12.5907 24.4665 12.5907 24.7473C12.5907 25.0283 12.7653 25.2564 12.9804 25.2564C13.1955 25.2564 13.3701 25.0283 13.3701 24.7473C13.3701 24.4664 13.1955 24.2383 12.9804 24.2383H12.9801ZM5.43551 24.2383C5.22062 24.2386 5.04627 24.4666 5.04627 24.7473C5.04627 25.0283 5.22086 25.2564 5.43595 25.2564C5.651 25.2564 5.82564 25.0283 5.82564 24.7473C5.82564 24.4664 5.651 24.2383 5.43595 24.2383H5.43551ZM9.22137 22.2904C9.00628 22.2904 8.83169 22.5185 8.83169 22.7995C8.83169 23.0804 9.00628 23.3085 9.22137 23.3085C9.43646 23.3085 9.61106 23.0804 9.61106 22.7995C9.61106 22.5185 9.43646 22.2904 9.22137 22.2904ZM1.66372 24.2383C1.44863 24.2383 1.27404 24.4664 1.27404 24.7473C1.27404 25.0283 1.44863 25.2564 1.66372 25.2564C1.87877 25.2564 2.05341 25.0283 2.05341 24.7473C2.05341 24.4664 1.87877 24.2383 1.66372 24.2383ZM11.3835 2.76194C10.574 1.52431 9.37032 0.739829 8.02666 0.739829C5.58858 0.739829 3.61309 3.32189 3.61309 6.52958C3.61309 6.61238 3.59182 6.69278 3.55269 6.75792C3.51356 6.82307 3.45883 6.86917 3.39727 6.88887C1.78071 7.40622 0.566346 9.30985 0.566346 11.5681C0.566346 14.1965 2.21195 16.3476 4.22401 16.3476H14.7597C16.7718 16.3476 18.4184 14.1966 18.4184 11.5681C18.4184 9.68664 17.5743 8.05019 16.357 7.27152C16.3073 7.23973 16.2658 7.18962 16.2376 7.12737C16.2095 7.06512 16.1959 6.99347 16.1986 6.92126C16.2012 6.85205 16.2025 6.78277 16.2025 6.71348C16.2025 4.39665 14.7626 2.51568 12.989 2.51568C12.5352 2.51568 12.1031 2.63876 11.7116 2.86092C11.656 2.89246 11.5941 2.89987 11.535 2.88205C11.476 2.86423 11.4229 2.82213 11.3835 2.76194ZM13.0034 11.034C12.5154 11.034 12.2704 11.8065 12.6155 12.2573C12.8222 12.5273 12.8222 12.9667 12.6155 13.2367L12.0843 13.9307C11.8775 14.2008 11.5412 14.2008 11.3345 13.9307C10.9893 13.4799 10.398 13.7999 10.398 14.4374C10.398 14.8209 10.1607 15.1297 9.8681 15.1297H9.11668C8.82408 15.1297 8.58674 14.8209 8.58674 14.4374C8.58674 13.7992 7.99572 13.4795 7.65033 13.9307C7.44345 14.201 7.10785 14.201 6.90105 13.9308L6.36925 13.2367C6.16254 12.9667 6.16254 12.5273 6.36925 12.2573C6.7144 11.8065 6.4697 11.034 5.98143 11.034C5.68883 11.034 5.45149 10.724 5.45149 10.3418V9.36016C5.45149 8.97788 5.68883 8.66784 5.98143 8.66784C6.4697 8.66784 6.7144 7.89546 6.36925 7.44459C6.16242 7.17434 6.16242 6.73599 6.36925 6.46574L6.90097 5.77114C7.10785 5.5009 7.44345 5.5009 7.65033 5.77114C7.99544 6.22197 8.58674 5.90231 8.58674 5.26452C8.58674 4.88224 8.82408 4.5722 9.11668 4.5722H9.8681C10.1607 4.5722 10.398 4.88224 10.398 5.26452C10.398 5.90231 10.9893 6.22197 11.3345 5.77114C11.5412 5.50111 11.8775 5.50111 12.0843 5.77114L12.6155 6.46574C12.8224 6.73599 12.8224 7.17434 12.6155 7.44459C12.2704 7.89546 12.5154 8.66784 13.0034 8.66784C13.2969 8.66784 13.5333 8.97788 13.5333 9.36016V10.3418C13.5333 10.724 13.2969 11.034 13.0034 11.034ZM6.01784 9.40698V10.2949C6.97387 10.3322 7.45065 11.8374 6.79494 12.7465L7.27601 13.3744C7.97254 12.5174 9.12396 13.1403 9.15252 14.3898H9.83226C9.86086 13.1417 11.0131 12.5181 11.709 13.3747L12.1898 12.7465C11.5341 11.8374 12.0115 10.3322 12.9669 10.2949V9.40698C12.0116 9.36962 11.5342 7.86481 12.1896 6.95566L11.709 6.32723C11.0131 7.1838 9.86082 6.56091 9.83226 5.31203H9.15252C9.12396 6.56081 7.97197 7.18369 7.27605 6.3275L6.79515 6.95566C7.45057 7.86481 6.97375 9.36962 6.01784 9.40698ZM9.49261 12.5797C8.342 12.5797 7.40393 11.3536 7.40393 9.85125C7.40393 8.34813 8.342 7.12271 9.49261 7.12271C10.6427 7.12271 11.5813 8.34813 11.5813 9.85125C11.5813 11.3536 10.6427 12.5797 9.49261 12.5797ZM9.49261 11.8399C10.3309 11.8399 11.015 10.9463 11.015 9.85125C11.015 8.75572 10.3309 7.86254 9.49261 7.86254C8.65397 7.86254 7.97027 8.75572 7.97027 9.85125C7.97027 10.9463 8.65397 11.8399 9.49261 11.8399ZM18.8069 20.7982C18.5918 20.7982 18.4172 21.0263 18.4172 21.3072C18.4172 21.5882 18.5918 21.8163 18.8069 21.8163C19.0219 21.8163 19.1966 21.5882 19.1966 21.3072C19.1966 21.0263 19.0219 20.7982 18.8069 20.7982Z" fill="white"/>
</svg>
