<svg width="45" height="45" viewBox="0 0 45 45" fill="none" xmlns="http://www.w3.org/2000/svg">
<path d="M20.2397 32.5281V29.6367C20.2397 28.4411 19.2667 27.4681 18.0711 27.4681V26.0225C19.2667 26.0225 20.2397 25.0495 20.2397 23.8539V20.9625C20.2397 19.7669 19.2667 18.794 18.0711 18.794V17.3483C19.2667 17.3483 20.2397 16.3754 20.2397 15.1798V12.2884C20.2397 11.0928 19.2667 10.1198 18.0711 10.1198H2.16854C0.972951 10.1198 0 11.0928 0 12.2884V15.1798C0 16.3754 0.972951 17.3483 2.16854 17.3483V18.794C0.972951 18.794 0 19.7669 0 20.9625V23.8539C0 25.0495 0.972951 26.0225 2.16854 26.0225V27.4681C0.972951 27.4681 0 28.4411 0 29.6367V32.5281C0 33.7237 0.972951 34.6966 2.16854 34.6966H18.0711C19.2667 34.6966 20.2397 33.7237 20.2397 32.5281ZM1.44569 15.1798V12.2884C1.44569 12.0967 1.52185 11.9128 1.65741 11.7773C1.79297 11.6417 1.97683 11.5655 2.16854 11.5655H18.0711C18.2629 11.5655 18.4467 11.6417 18.5823 11.7773C18.7178 11.9128 18.794 12.0967 18.794 12.2884V15.1798C18.794 15.3715 18.7178 15.5553 18.5823 15.6909C18.4467 15.8265 18.2629 15.9026 18.0711 15.9026H2.16854C1.97683 15.9026 1.79297 15.8265 1.65741 15.6909C1.52185 15.5553 1.44569 15.3715 1.44569 15.1798ZM3.61423 17.3483H16.6255V18.794H3.61423V17.3483ZM1.44569 23.8539V20.9625C1.44569 20.7708 1.52185 20.587 1.65741 20.4514C1.79297 20.3158 1.97683 20.2397 2.16854 20.2397H18.0711C18.2629 20.2397 18.4467 20.3158 18.5823 20.4514C18.7178 20.587 18.794 20.7708 18.794 20.9625V23.8539C18.794 24.0456 18.7178 24.2295 18.5823 24.365C18.4467 24.5006 18.2629 24.5768 18.0711 24.5768H2.16854C1.97683 24.5768 1.79297 24.5006 1.65741 24.365C1.52185 24.2295 1.44569 24.0456 1.44569 23.8539ZM3.61423 26.0225H16.6255V27.4681H3.61423V26.0225ZM1.44569 32.5281V29.6367C1.44569 29.445 1.52185 29.2611 1.65741 29.1256C1.79297 28.99 1.97683 28.9138 2.16854 28.9138H18.0711C18.2629 28.9138 18.4467 28.99 18.5823 29.1256C18.7178 29.2611 18.794 29.445 18.794 29.6367V32.5281C18.794 32.7198 18.7178 32.9036 18.5823 33.0392C18.4467 33.1748 18.2629 33.2509 18.0711 33.2509H2.16854C1.97683 33.2509 1.79297 33.1748 1.65741 33.0392C1.52185 32.9036 1.44569 32.7198 1.44569 32.5281ZM44.8164 15.1798V12.2884C44.8164 11.0928 43.8435 10.1198 42.6479 10.1198H26.7453C25.5497 10.1198 24.5768 11.0928 24.5768 12.2884V15.1798C24.5768 16.3754 25.5497 17.3483 26.7453 17.3483V18.794C25.5497 18.794 24.5768 19.7669 24.5768 20.9625V23.8539C24.5768 25.0495 25.5497 26.0225 26.7453 26.0225V27.4681C25.5497 27.4681 24.5768 28.4411 24.5768 29.6367V32.5281C24.5768 33.7237 25.5497 34.6966 26.7453 34.6966H42.6479C43.8435 34.6966 44.8164 33.7237 44.8164 32.5281V29.6367C44.8164 28.4411 43.8435 27.4681 42.6479 27.4681V26.0225C43.8435 26.0225 44.8164 25.0495 44.8164 23.8539V20.9625C44.8164 19.7669 43.8435 18.794 42.6479 18.794V17.3483C43.8435 17.3483 44.8164 16.3754 44.8164 15.1798ZM26.0225 15.1798V12.2884C26.0225 12.0967 26.0986 11.9128 26.2342 11.7773C26.3697 11.6417 26.5536 11.5655 26.7453 11.5655H42.6479C42.8396 11.5655 43.0235 11.6417 43.159 11.7773C43.2946 11.9128 43.3708 12.0967 43.3708 12.2884V15.1798C43.3708 15.3715 43.2946 15.5553 43.159 15.6909C43.0235 15.8265 42.8396 15.9026 42.6479 15.9026H26.7453C26.5536 15.9026 26.3697 15.8265 26.2342 15.6909C26.0986 15.5553 26.0225 15.3715 26.0225 15.1798ZM43.3708 29.6367V32.5281C43.3708 32.7198 43.2946 32.9036 43.159 33.0392C43.0235 33.1748 42.8396 33.2509 42.6479 33.2509H26.7453C26.5536 33.2509 26.3697 33.1748 26.2342 33.0392C26.0986 32.9036 26.0225 32.7198 26.0225 32.5281V29.6367C26.0225 29.445 26.0986 29.2611 26.2342 29.1256C26.3697 28.99 26.5536 28.9138 26.7453 28.9138H42.6479C42.8396 28.9138 43.0235 28.99 43.159 29.1256C43.2946 29.2611 43.3708 29.445 43.3708 29.6367ZM41.2022 27.4681H28.191V26.0225H41.2022V27.4681ZM43.3708 20.9625V23.8539C43.3708 24.0456 43.2946 24.2295 43.159 24.365C43.0235 24.5006 42.8396 24.5768 42.6479 24.5768H26.7453C26.5536 24.5768 26.3697 24.5006 26.2342 24.365C26.0986 24.2295 26.0225 24.0456 26.0225 23.8539V20.9625C26.0225 20.7708 26.0986 20.587 26.2342 20.4514C26.3697 20.3158 26.5536 20.2397 26.7453 20.2397H42.6479C42.8396 20.2397 43.0235 20.3158 43.159 20.4514C43.2946 20.587 43.3708 20.7708 43.3708 20.9625ZM41.2022 18.794H28.191V17.3483H41.2022V18.794ZM32.5281 2.89139V2.02758L36.224 4.33708L32.5281 6.64657V5.78277C32.5281 5.59106 32.4519 5.4072 32.3163 5.27164C32.1808 5.13608 31.9969 5.05992 31.8052 5.05992H8.67415V6.50562H31.0824V7.95131C31.0824 8.08034 31.1169 8.20702 31.1824 8.31819C31.2479 8.42937 31.342 8.52099 31.4548 8.58354C31.5677 8.64609 31.6952 8.67729 31.8242 8.67391C31.9532 8.67052 32.0789 8.63267 32.1883 8.56428L37.9711 4.95005C38.0751 4.88507 38.1608 4.79472 38.2202 4.68749C38.2797 4.58026 38.3108 4.45968 38.3108 4.33708C38.3108 4.21448 38.2797 4.09389 38.2202 3.98666C38.1608 3.87943 38.0751 3.78908 37.9711 3.7241L32.1883 0.109874C32.0789 0.0414875 31.9532 0.00363589 31.8242 0.0002491C31.6952 -0.00313769 31.5677 0.0280639 31.4548 0.0906144C31.342 0.153165 31.2479 0.244784 31.1824 0.35596C31.1169 0.467136 31.0824 0.593816 31.0824 0.722848V2.16854H7.22846V3.61423H31.8052C31.9969 3.61423 32.1808 3.53807 32.3163 3.40251C32.4519 3.26695 32.5281 3.0831 32.5281 2.89139ZM12.2884 41.9251V42.7889L8.59247 40.4794L12.2884 38.1699V39.0337C12.2884 39.2254 12.3645 39.4093 12.5001 39.5448C12.6357 39.6804 12.8195 39.7565 13.0112 39.7565H36.1423V38.3108H13.7341V36.8651C13.7342 36.736 13.6996 36.6092 13.6341 36.4979C13.5686 36.3866 13.4744 36.2949 13.3615 36.2324C13.2485 36.1698 13.1208 36.1386 12.9917 36.1421C12.8626 36.1456 12.7368 36.1836 12.6274 36.2522L6.84463 39.8664C6.74103 39.9317 6.65568 40.0222 6.59655 40.1294C6.53743 40.2366 6.50645 40.3571 6.50652 40.4796C6.5066 40.602 6.53771 40.7225 6.59697 40.8296C6.65622 40.9368 6.74168 41.0272 6.84535 41.0923L12.6281 44.7066C12.7375 44.775 12.8633 44.8128 12.9923 44.8162C13.1212 44.8196 13.2488 44.7884 13.3616 44.7258C13.4745 44.6633 13.5686 44.5717 13.634 44.4605C13.6995 44.3493 13.7341 44.2226 13.7341 44.0936V42.6479H37.588V41.2022H13.0112C12.8195 41.2022 12.6357 41.2784 12.5001 41.4139C12.3645 41.5495 12.2884 41.7334 12.2884 41.9251ZM37.588 38.3108H39.0337V39.7565H37.588V38.3108ZM40.4794 38.3108H41.9251V39.7565H40.4794V38.3108ZM5.78277 5.05992H7.22846V6.50562H5.78277V5.05992ZM2.89138 5.05992H4.33708V6.50562H2.89138V5.05992Z" fill="white"/>
</svg>
