<svg width="42" height="34" viewBox="0 0 42 34" fill="none" xmlns="http://www.w3.org/2000/svg">
<g clip-path="url(#clip0_126_1152)">
<g clip-path="url(#clip1_126_1152)">
<g clip-path="url(#clip2_126_1152)">
<path d="M27.7518 9.26546L31.3793 5.63803L31.6202 4.11127C25.011 -1.90011 14.504 -1.21766 8.54413 5.53318C6.88861 7.4076 5.66169 9.74556 5.00684 12.1608L6.3055 11.9768L13.5604 10.7812L14.1196 10.2091C17.346 6.66445 22.8037 6.18803 26.5286 9.20292L27.7518 9.26546Z" fill="white"/>
<path d="M36.5487 12.0523C35.7154 8.98224 34.0029 6.2212 31.6226 4.1095L26.531 9.20114C28.6813 10.9578 29.9046 13.603 29.8531 16.3787V17.2819C32.3547 17.2819 34.3837 19.3108 34.3837 21.8125C34.3837 24.3142 32.3547 26.2935 29.8531 26.2935H20.779L19.8887 27.261V32.6966L20.779 33.5502H29.8531C36.3611 33.6017 41.679 28.4162 41.7305 21.9082C41.7618 17.9625 39.8156 14.2634 36.5487 12.0523Z" fill="white"/>
<path d="M11.7156 33.5502H20.7787V26.2953H11.7156C11.0737 26.2953 10.4409 26.1555 9.85778 25.8888L8.57199 26.2824L4.91881 29.9099L4.60059 31.1442C6.64975 32.6911 9.14959 33.5612 11.7156 33.5502Z" fill="white"/>
<path d="M11.7148 10.0159C5.20493 10.0546 -0.0393933 15.3633 -0.000764526 21.8731C0.0213091 25.5079 1.71914 28.9293 4.59974 31.1459L9.85694 25.8887C7.576 24.8586 6.56245 22.1748 7.59255 19.8939C8.62265 17.6129 11.3064 16.5994 13.5874 17.6295C14.5917 18.0838 15.3974 18.8877 15.8518 19.8939L21.109 14.6367C18.8722 11.7119 15.3956 10.0031 11.7148 10.0159Z" fill="white"/>
</g>
</g>
</g>
<defs>
<clipPath id="clip0_126_1152">
<rect width="41.7301" height="33.5539" fill="white"/>
</clipPath>
<clipPath id="clip1_126_1152">
<rect width="41.7301" height="33.5539" fill="white"/>
</clipPath>
<clipPath id="clip2_126_1152">
<rect width="41.7301" height="33.5464" fill="white" transform="translate(0 0.00354004)"/>
</clipPath>
</defs>
</svg>
