<svg width="166" height="199" viewBox="0 0 166 199" fill="none" xmlns="http://www.w3.org/2000/svg">
<g opacity="0.1" clip-path="url(#clip0_126_761)">
<path d="M17.5467 1.11181L70.7329 54.7529L61.9605 63.7579L26.4294 27.9601L-0.218835 54.9196L8.60875 63.9803L26.4294 45.859L115.312 135.409L166.016 84.2138" stroke="white" stroke-width="4" stroke-miterlimit="10" stroke-linecap="round" stroke-linejoin="round"/>
<path d="M141.96 1.11182L106.429 36.9652L132.912 63.9803L141.96 54.8085L124.195 36.9096L141.96 19.0107L166.016 43.6356" stroke="white" stroke-width="4" stroke-miterlimit="10" stroke-linecap="round" stroke-linejoin="round"/>
<path d="M164.36 50.1387L115.312 99.5552L97.5467 81.6563L88.5536 90.6613L115.036 117.732L166.016 66.5923" stroke="white" stroke-width="4" stroke-miterlimit="10" stroke-linecap="round" stroke-linejoin="round"/>
<path d="M166.016 120.345L124.25 162.202L115.257 153.475L106.374 162.202L133.078 189.106L150.843 171.207L166.016 186.66" stroke="white" stroke-width="4" stroke-miterlimit="10" stroke-linecap="round" stroke-linejoin="round"/>
<path d="M106.374 1.16699L70.7326 37.0203L61.9602 27.9597L70.9533 19.1215L53.0775 1.16699" stroke="white" stroke-width="4" stroke-miterlimit="10" stroke-linecap="round" stroke-linejoin="round"/>
<path d="M124.193 1.11182L88.552 37.0208L124.193 72.7074L115.311 81.6568L88.552 54.864L70.7313 72.8185L79.7244 81.7124L88.552 72.7629" stroke="white" stroke-width="4" stroke-miterlimit="10" stroke-linecap="round" stroke-linejoin="round"/>
<path d="M166.016 102.001L124.085 144.414" stroke="white" stroke-width="4" stroke-miterlimit="10" stroke-linecap="round" stroke-linejoin="round"/>
<path d="M-0.220317 1.16699L17.49 19.1215L-18.4824 55.086L44.4693 117.732L61.959 99.5553L26.4279 63.7575" stroke="white" stroke-width="4" stroke-miterlimit="10" stroke-linecap="round" stroke-linejoin="round"/>
<path d="M-17.9848 1.11182L-0.274415 19.1219L-18.0951 37.0208L-26.8675 27.9601L-17.9296 18.9551L-35.7503 1.11181" stroke="white" stroke-width="4" stroke-miterlimit="10" stroke-linecap="round" stroke-linejoin="round"/>
<path d="M17.2141 72.708L44.1934 99.5563" stroke="white" stroke-width="4" stroke-miterlimit="10" stroke-linecap="round" stroke-linejoin="round"/>
<path d="M53.0771 18.9547L35.3116 1.16699" stroke="white" stroke-width="4" stroke-miterlimit="10" stroke-linecap="round" stroke-linejoin="round"/>
<path d="M166.016 137.911L133.078 171.207" stroke="white" stroke-width="4" stroke-miterlimit="10" stroke-linecap="round" stroke-linejoin="round"/>
</g>
<defs>
<clipPath id="clip0_126_761">
<rect width="199" height="176" fill="white" transform="translate(176) rotate(90)"/>
</clipPath>
</defs>
</svg>
