<svg width="18" height="18" viewBox="0 0 18 18" fill="none" xmlns="http://www.w3.org/2000/svg">
<path d="M18 18V11.4C18 10.2 17.9 9.22 17.7 8.46C17.42 7.58 16.98 6.9 16.38 6.42C15.66 5.94 14.7 5.7 13.5 5.7C12.66 5.7 11.92 5.9 11.28 6.3C10.72 6.66 10.3 7.1 10.02 7.62H9.96V6H6.36V18H10.08V12.06C10.08 11.1 10.22 10.38 10.5 9.9C10.86 9.26 11.47 8.94 12.33 8.94C13.19 8.94 13.76 9.3 14.04 10.02C14.2 10.46 14.28 11.16 14.28 12.12V18H18ZM0.3 6H4.02V18H0.3V6ZM2.16 0C1.56 0 1.05 0.210001 0.63 0.630001C0.21 1.05 0 1.56 0 2.16C0 2.76 0.21 3.27 0.63 3.69C1.05 4.11 1.56 4.32 2.16 4.32C2.76 4.32 3.27 4.11 3.69 3.69C4.11 3.27 4.32 2.76 4.32 2.16C4.32 1.56 4.11 1.05 3.69 0.630001C3.27 0.210001 2.76 0 2.16 0Z" fill="white"/>
</svg>
