<svg width="33" height="29" viewBox="0 0 33 29" fill="none" xmlns="http://www.w3.org/2000/svg">
<path d="M23.4981 19.4413L22.187 19.2027C22.1348 19.0608 22.0773 18.9209 22.0144 18.7834L22.7721 17.6889C22.8637 17.5565 22.9059 17.3962 22.8915 17.2359C22.877 17.0756 22.8068 16.9254 22.693 16.8116L21.0017 15.1204C20.888 15.0064 20.7377 14.9362 20.5774 14.9218C20.417 14.9075 20.2567 14.95 20.1245 15.042L19.03 15.7982C18.893 15.7359 18.7532 15.6786 18.6106 15.6264L18.3721 14.3153C18.3432 14.1569 18.2597 14.0136 18.1361 13.9105C18.0125 13.8073 17.8566 13.7508 17.6956 13.7509H15.3044C15.1434 13.7508 14.9875 13.8073 14.8639 13.9105C14.7403 14.0136 14.6568 14.1569 14.6279 14.3153L14.3901 15.6257C14.2471 15.6784 14.107 15.7359 13.97 15.7982L12.8748 15.0413C12.7426 14.9497 12.5824 14.9075 12.4222 14.922C12.262 14.9364 12.112 15.0066 11.9982 15.1204L10.307 16.8116C10.1934 16.9254 10.1233 17.0754 10.1088 17.2356C10.0944 17.3957 10.1365 17.5559 10.2279 17.6882L10.9856 18.7827C10.9237 18.9202 10.8652 19.0604 10.813 19.202L9.50194 19.4413C9.34353 19.4701 9.20026 19.5536 9.09711 19.6772C8.99396 19.8009 8.93748 19.9568 8.9375 20.1178V22.5089C8.93748 22.6699 8.99396 22.8258 9.09711 22.9495C9.20026 23.0731 9.34353 23.1566 9.50194 23.1854L10.813 23.424C10.8652 23.5663 10.923 23.7065 10.9856 23.8434L10.2279 24.9372C10.1362 25.0696 10.0938 25.23 10.1082 25.3905C10.1227 25.5509 10.193 25.7012 10.307 25.8151L11.9982 27.5064C12.1121 27.6198 12.2621 27.6899 12.4222 27.7043C12.5824 27.7188 12.7425 27.6767 12.8748 27.5854L13.97 26.8285C14.107 26.8908 14.2468 26.9481 14.3894 27.0004L14.6279 28.3114C14.6568 28.4698 14.7403 28.6131 14.8639 28.7162C14.9875 28.8194 15.1434 28.8759 15.3044 28.8759H17.6956C17.8566 28.8759 18.0125 28.8194 18.1361 28.7162C18.2597 28.6131 18.3432 28.4698 18.3721 28.3114L18.6099 27.0004C18.7529 26.9481 18.893 26.8908 19.03 26.8285L20.1245 27.5854C20.2569 27.6769 20.4172 27.7191 20.5774 27.7046C20.7377 27.6902 20.8878 27.62 21.0017 27.5064L22.693 25.8151C22.807 25.7012 22.8773 25.5509 22.8918 25.3905C22.9062 25.23 22.8638 25.0696 22.7721 24.9372L22.0151 23.844C22.077 23.7065 22.1347 23.5663 22.187 23.4247L23.4981 23.1854C23.6565 23.1566 23.7997 23.0731 23.9029 22.9495C24.006 22.8258 24.0625 22.6699 24.0625 22.5089V20.1178C24.0625 19.9568 24.006 19.8009 23.9029 19.6772C23.7997 19.5536 23.6565 19.4701 23.4981 19.4413ZM22.6875 21.9349L21.5394 22.1445C21.4136 22.1672 21.2967 22.2245 21.2017 22.31C21.1067 22.3955 21.0375 22.5058 21.0017 22.6285C20.9074 22.9552 20.7777 23.2706 20.6147 23.569C20.5532 23.6811 20.5242 23.8081 20.5308 23.9357C20.5375 24.0633 20.5797 24.1866 20.6525 24.2916L21.3152 25.2486L20.4353 26.1286L19.4776 25.4659C19.3726 25.3931 19.2495 25.3511 19.122 25.3444C18.9945 25.3377 18.8677 25.3667 18.7557 25.428C18.4571 25.5914 18.1415 25.7214 17.8145 25.8158C17.6919 25.8515 17.5817 25.9207 17.4962 26.0155C17.4107 26.1103 17.3534 26.2271 17.3305 26.3527L17.1222 27.5009H15.8778L15.6695 26.3527C15.6466 26.227 15.5891 26.1102 15.5035 26.0154C15.4179 25.9205 15.3075 25.8514 15.1848 25.8158C14.8576 25.7215 14.5417 25.5914 14.2429 25.428C14.131 25.3667 14.0041 25.3377 13.8766 25.3444C13.7491 25.3511 13.626 25.3931 13.5211 25.4659L12.5641 26.1286L11.6848 25.2486L12.3475 24.2916C12.4201 24.1866 12.462 24.0634 12.4686 23.9359C12.4751 23.8084 12.4461 23.6816 12.3846 23.5697C12.2216 23.2711 12.0918 22.9555 11.9976 22.6285C11.9619 22.5059 11.8928 22.3957 11.7979 22.3102C11.7031 22.2247 11.5863 22.1673 11.4606 22.1445L10.3125 21.9349V20.6919L11.4606 20.4822C11.5864 20.4595 11.7033 20.4022 11.7983 20.3167C11.8933 20.2312 11.9625 20.1209 11.9982 19.9982C12.0925 19.6715 12.2223 19.3561 12.3853 19.0577C12.4468 18.9456 12.4758 18.8186 12.4692 18.691C12.4625 18.5634 12.4203 18.4401 12.3475 18.3351L11.6848 17.3774L12.5647 16.4981L13.5217 17.1609C13.6268 17.2333 13.7499 17.2751 13.8773 17.2818C14.0048 17.2885 14.1316 17.2597 14.2436 17.1987C14.5424 17.0353 14.8583 16.9053 15.1855 16.8109C15.3081 16.7752 15.4183 16.706 15.5038 16.6112C15.5893 16.5164 15.6466 16.3996 15.6695 16.274L15.8778 15.1259H17.1222L17.3305 16.274C17.3534 16.3997 17.4109 16.5165 17.4965 16.6113C17.5821 16.7062 17.6925 16.7753 17.8152 16.8109C18.1424 16.9053 18.4583 17.0353 18.7571 17.1987C18.8691 17.2597 18.9959 17.2885 19.1233 17.2818C19.2508 17.2751 19.3739 17.2333 19.4789 17.1609L20.4359 16.4981L21.3152 17.3781L20.6525 18.3351C20.5799 18.4401 20.538 18.5633 20.5314 18.6908C20.5249 18.8183 20.5539 18.9451 20.6154 19.057C20.7784 19.3556 20.9082 19.6712 21.0024 19.9982C21.0381 20.1208 21.1072 20.231 21.2021 20.3165C21.2969 20.402 21.4137 20.4594 21.5394 20.4822L22.6875 20.6919V21.9349Z" fill="white"/>
<path d="M16.5 17.8759C15.8201 17.8759 15.1555 18.0775 14.5902 18.4552C14.0249 18.8329 13.5843 19.3698 13.3242 19.9979C13.064 20.626 12.9959 21.3172 13.1286 21.984C13.2612 22.6508 13.5886 23.2633 14.0693 23.744C14.5501 24.2248 15.1626 24.5522 15.8294 24.6848C16.4962 24.8174 17.1874 24.7494 17.8155 24.4892C18.4436 24.229 18.9805 23.7884 19.3582 23.2231C19.7359 22.6578 19.9375 21.9932 19.9375 21.3134C19.9364 20.402 19.5739 19.5283 18.9295 18.8839C18.2851 18.2395 17.4113 17.8769 16.5 17.8759ZM16.5 23.3759C16.0921 23.3759 15.6933 23.2549 15.3541 23.0283C15.015 22.8016 14.7506 22.4795 14.5945 22.1026C14.4384 21.7258 14.3975 21.3111 14.4771 20.911C14.5567 20.5109 14.7531 20.1434 15.0416 19.8549C15.33 19.5665 15.6975 19.3701 16.0976 19.2905C16.4977 19.2109 16.9124 19.2517 17.2893 19.4079C17.6662 19.564 17.9883 19.8283 18.2149 20.1675C18.4415 20.5067 18.5625 20.9054 18.5625 21.3134C18.562 21.8602 18.3445 22.3845 17.9578 22.7712C17.5711 23.1578 17.0468 23.3753 16.5 23.3759Z" fill="white"/>
<path d="M28.1753 8.56646C28.0794 7.1759 27.4598 5.87342 26.4414 4.92174C25.423 3.97005 24.0816 3.43997 22.6877 3.4384C22.2621 3.43865 21.838 3.48896 21.4241 3.58827C20.8576 2.36248 19.9053 1.35591 18.7128 0.722421C17.5203 0.0889309 16.1531 -0.136622 14.8203 0.0802412C13.4874 0.297104 12.2623 0.94445 11.3321 1.92333C10.4019 2.9022 9.81785 4.15875 9.66921 5.5009H9.62521C8.0344 5.50281 6.5053 6.11661 5.35468 7.21513C4.20407 8.31365 3.52014 9.8127 3.44458 11.4017C2.2601 11.8787 1.27856 12.7531 0.668388 13.8748C0.058221 14.9965 -0.142527 16.2956 0.100592 17.5492C0.34371 18.8027 1.01554 19.9326 2.00079 20.7449C2.98604 21.5572 4.22328 22.0013 5.50021 22.0009H6.87521C7.05754 22.0009 7.23241 21.9285 7.36134 21.7995C7.49027 21.6706 7.56271 21.4957 7.56271 21.3134C7.56271 21.1311 7.49027 20.9562 7.36134 20.8273C7.23241 20.6983 7.05754 20.6259 6.87521 20.6259H5.50021C4.509 20.6256 3.55104 20.2684 2.80169 19.6196C2.05234 18.9707 1.56172 18.0738 1.41963 17.0928C1.27755 16.1118 1.49351 15.1125 2.02798 14.2777C2.56245 13.4429 3.37968 12.8286 4.33008 12.5471C4.47629 12.5039 4.60399 12.4133 4.6931 12.2896C4.7822 12.1659 4.82767 12.0161 4.82233 11.8637L4.81271 11.6884C4.80831 11.0041 4.95081 10.3269 5.23057 9.70246C5.51034 9.078 5.92085 8.52085 6.43439 8.06863C6.94793 7.61642 7.55253 7.27968 8.20736 7.08115C8.8622 6.88262 9.55201 6.82693 10.2302 6.91784C10.3284 6.9256 10.4271 6.91266 10.5199 6.87985C10.6128 6.84705 10.6977 6.79511 10.7692 6.7274C10.8425 6.65812 10.9008 6.57455 10.9406 6.48184C10.9803 6.38913 11.0006 6.28926 11.0002 6.1884C10.9996 5.04742 11.4046 3.94337 12.1428 3.0734C12.8811 2.20344 13.9045 1.6242 15.0304 1.43913C16.1562 1.25406 17.3113 1.4752 18.2891 2.06307C19.267 2.65094 20.0041 3.56726 20.3688 4.6484C20.3982 4.7356 20.4448 4.816 20.5058 4.88485C20.5669 4.9537 20.6412 5.00959 20.7242 5.04921C20.807 5.08916 20.897 5.11188 20.9888 5.11602C21.0807 5.12016 21.1724 5.10561 21.2584 5.07327C21.8852 4.83926 22.5596 4.76169 23.2232 4.84727C23.8868 4.93285 24.5194 5.179 25.0664 5.56439C25.6133 5.94977 26.0579 6.46275 26.3618 7.05885C26.6656 7.65494 26.8194 8.31615 26.81 8.98515L26.8051 9.06834C26.799 9.22888 26.8492 9.38652 26.9472 9.51387C27.0452 9.64122 27.1846 9.73023 27.3414 9.76546C28.6609 10.0639 29.824 10.8383 30.6083 11.9405C31.3925 13.0427 31.7429 14.3954 31.5924 15.7398C31.4418 17.0842 30.8009 18.3259 29.7923 19.2273C28.7836 20.1288 27.478 20.6267 26.1252 20.6259C25.9429 20.6259 25.768 20.6983 25.6391 20.8273C25.5101 20.9562 25.4377 21.1311 25.4377 21.3134C25.4377 21.4957 25.5101 21.6706 25.6391 21.7995C25.768 21.9285 25.9429 22.0009 26.1252 22.0009C27.7685 22.0009 29.3575 21.4122 30.6041 20.3414C31.8507 19.2707 32.6724 17.7887 32.9203 16.1642C33.1682 14.5397 32.8259 12.8801 31.9554 11.4863C31.0849 10.0924 29.7439 9.05657 28.1753 8.56646Z" fill="white"/>
</svg>
