<svg width="31" height="31" viewBox="0 0 31 31" fill="none" xmlns="http://www.w3.org/2000/svg">
<path d="M23.0189 17.147H6.69225C4.23771 17.147 2.22656 15.1517 2.22656 12.6655C2.22656 10.5119 3.77847 8.6749 5.85296 8.27901C6.138 6.07783 8.02246 4.38341 10.287 4.38341C10.7145 4.38341 11.1263 4.44675 11.5222 4.5576C12.3931 2.26141 14.6101 0.725342 17.1439 0.725342C20.4852 0.725342 23.1931 3.4491 23.1931 6.77461C23.1931 7.23385 23.1298 7.72475 23.0189 8.19983C25.4893 8.19983 27.5005 10.211 27.5005 12.6814C27.5005 15.1517 25.5052 17.147 23.0189 17.147ZM10.2711 5.17519C8.3075 5.17519 6.69225 6.69543 6.5814 8.64323C6.5814 8.81742 6.42304 8.97578 6.24885 8.99162C4.4119 9.24499 3.00252 10.8127 3.00252 12.6814C3.00252 14.7242 4.64944 16.4028 6.69225 16.4028H23.0189C25.0618 16.4028 26.7403 14.7242 26.7403 12.6814C26.7403 10.6385 25.0618 8.97578 23.0189 8.97578C22.8764 8.97578 22.7181 8.99162 22.5597 9.02329C22.433 9.03912 22.3063 8.99162 22.2113 8.88077C22.1321 8.76992 22.1005 8.64323 22.148 8.51654C22.338 7.94646 22.433 7.3447 22.433 6.77461C22.433 3.86083 20.0576 1.48546 17.1439 1.48546C14.8318 1.48546 12.8207 2.95819 12.1081 5.17519C12.0923 5.28605 11.9972 5.34939 11.9181 5.3969C11.823 5.4444 11.7122 5.4444 11.6013 5.41273C11.1896 5.27021 10.7304 5.17519 10.2711 5.17519Z" fill="white"/>
<path d="M23.4458 24.6532C23.3508 24.6532 23.24 24.6057 23.1766 24.5424L20.4845 21.8344C20.4054 21.7711 20.3737 21.6602 20.3737 21.5811V16.767C20.3737 16.5453 20.5479 16.3711 20.7696 16.3711C20.9754 16.3711 21.1338 16.5453 21.1338 16.767V21.4227L23.6992 23.9881C23.8576 24.1465 23.8576 24.384 23.6992 24.5424C23.6359 24.6057 23.525 24.6532 23.4458 24.6532ZM24.301 23.7981C24.2059 23.7981 24.0951 23.7506 24.0318 23.6872L21.6881 21.3594C21.6247 21.296 21.5772 21.1852 21.5772 21.0902V16.767C21.5772 16.5453 21.7514 16.3711 21.9731 16.3711C22.1948 16.3711 22.369 16.5453 22.369 16.767V20.916L24.586 23.133C24.7444 23.2913 24.7444 23.5289 24.586 23.6872C24.491 23.7664 24.3801 23.7981 24.301 23.7981ZM6.27985 24.6532C6.18483 24.6532 6.07398 24.6057 6.01064 24.5424C5.85228 24.384 5.85228 24.1465 6.01064 23.9881L8.57604 21.4227V16.767C8.57604 16.5453 8.75023 16.3711 8.97193 16.3711C9.19363 16.3711 9.36783 16.5453 9.36783 16.767V21.5811C9.36783 21.6919 9.32032 21.7711 9.25698 21.8344L6.58073 24.5265C6.46988 24.6057 6.37486 24.6532 6.27985 24.6532ZM5.44055 23.7981C5.34554 23.7981 5.23469 23.7506 5.17134 23.6872C5.02882 23.5289 5.02882 23.2913 5.17134 23.133L7.38835 20.916V16.767C7.38835 16.5453 7.56255 16.3711 7.78425 16.3711C8.00595 16.3711 8.18014 16.5453 8.18014 16.767V21.0902C8.18014 21.201 8.13263 21.296 8.06929 21.3594L5.7256 23.7031C5.63058 23.7664 5.51973 23.7981 5.44055 23.7981ZM15.4488 21.5494C15.2271 21.5494 15.0529 21.3752 15.0529 21.1535V16.767C15.0529 16.5453 15.2271 16.3711 15.4488 16.3711C15.6705 16.3711 15.8447 16.5453 15.8447 16.767V21.1852C15.8447 21.3752 15.6705 21.5494 15.4488 21.5494ZM14.2611 21.5494C14.0394 21.5494 13.8652 21.3752 13.8652 21.1535V16.767C13.8652 16.5453 14.0394 16.3711 14.2611 16.3711C14.4828 16.3711 14.657 16.5453 14.657 16.767V21.1852C14.657 21.3752 14.4828 21.5494 14.2611 21.5494Z" fill="white"/>
<path d="M4.44304 27.7254C3.097 27.7254 1.97266 26.6327 1.97266 25.2392C1.97266 23.8773 3.06532 22.7688 4.44304 22.7688C5.83659 22.7688 6.92925 23.8615 6.92925 25.2392C6.91342 26.6327 5.80491 27.7254 4.44304 27.7254ZM4.44304 23.5606C3.50873 23.5606 2.73277 24.3207 2.73277 25.2708C2.73277 26.2052 3.50873 26.9811 4.44304 26.9811C5.39318 26.9811 6.16914 26.2052 6.16914 25.2708C6.13747 24.3207 5.37735 23.5606 4.44304 23.5606ZM14.863 25.6667C13.5011 25.6667 12.3768 24.5582 12.3768 23.1805C12.3768 21.8186 13.4694 20.6943 14.863 20.6943C16.2249 20.6943 17.3334 21.8186 17.3334 23.1805C17.3334 24.5424 16.2249 25.6667 14.863 25.6667ZM14.863 21.4703C13.9128 21.4703 13.1527 22.2304 13.1527 23.1805C13.1527 24.1307 13.9128 24.8908 14.863 24.8908C15.7973 24.8908 16.5732 24.1307 16.5732 23.1805C16.5732 22.2304 15.7973 21.4703 14.863 21.4703ZM25.2829 27.7254C23.921 27.7254 22.8125 26.6327 22.8125 25.2392C22.8125 23.8773 23.9052 22.7688 25.2829 22.7688C26.6765 22.7688 27.7691 23.8615 27.7691 25.2392C27.7691 26.6327 26.6448 27.7254 25.2829 27.7254ZM25.2829 23.5606C24.3486 23.5606 23.5727 24.3207 23.5727 25.2708C23.5727 26.2052 24.3486 26.9811 25.2829 26.9811C26.2331 26.9811 26.9932 26.2052 26.9932 25.2708C26.9932 24.3207 26.2331 23.5606 25.2829 23.5606ZM19.6612 6.94885C19.4395 6.94885 19.2653 6.77466 19.2653 6.55296C19.2653 5.50779 18.4102 4.65266 17.3334 4.65266C16.5257 4.65266 15.7815 5.20691 15.5122 5.98287C15.4489 6.18873 15.2272 6.29958 15.0372 6.23624C14.8313 6.1729 14.7205 5.9512 14.7838 5.74533C15.148 4.65266 16.1932 3.87671 17.3334 3.87671C18.8378 3.87671 20.0413 5.09606 20.0413 6.55296C20.0413 6.77466 19.8829 6.94885 19.6612 6.94885ZM14.863 17.1471C14.6413 17.1471 14.4671 16.9729 14.4671 16.7512V13.4732C14.4671 13.2515 14.6413 13.0773 14.863 13.0773C15.0847 13.0773 15.2589 13.2515 15.2589 13.4732V16.767C15.2589 16.9887 15.0847 17.1471 14.863 17.1471ZM12.2817 17.1471C12.0759 17.1471 11.8859 16.9729 11.8859 16.7512V14.8984L10.6032 13.299C10.5556 13.2357 10.5081 13.1406 10.5081 13.0615V10.5277C10.5081 10.3219 10.6823 10.1318 10.904 10.1318C11.1257 10.1318 11.2999 10.3219 11.2999 10.5277V12.9031L12.5985 14.5342C12.646 14.5975 12.6776 14.6767 12.6776 14.7717V16.7512C12.6618 16.9887 12.4876 17.1471 12.2817 17.1471ZM17.4284 17.1471C17.2067 17.1471 17.0325 16.9729 17.0325 16.7512V14.7717C17.0325 14.6767 17.0483 14.5975 17.1117 14.5342L18.4419 12.9031V10.5277C18.4419 10.3219 18.6161 10.1318 18.8378 10.1318C19.0436 10.1318 19.2337 10.3219 19.2337 10.5277V13.0298C19.2337 13.1248 19.202 13.2198 19.1386 13.2832L17.8243 14.8984V16.767C17.8243 16.9887 17.6501 17.1471 17.4284 17.1471Z" fill="white"/>
<path d="M10.904 10.9236C10.0647 10.9236 9.38379 10.2743 9.38379 9.43503C9.38379 8.59573 10.0647 7.91479 10.904 7.91479C11.7116 7.91479 12.3926 8.59573 12.3926 9.43503C12.3926 10.2427 11.7433 10.9236 10.904 10.9236ZM10.904 8.69075C10.4923 8.69075 10.1597 9.0233 10.1597 9.43503C10.1597 9.83092 10.4923 10.1635 10.904 10.1635C11.2999 10.1635 11.6325 9.84676 11.6325 9.43503C11.6325 9.0233 11.2999 8.69075 10.904 8.69075ZM18.8377 10.9236C17.9985 10.9236 17.3175 10.2743 17.3175 9.43503C17.3175 8.59573 17.9985 7.91479 18.8377 7.91479C19.6454 7.91479 20.3263 8.59573 20.3263 9.43503C20.3263 10.2427 19.6454 10.9236 18.8377 10.9236ZM18.8377 8.69075C18.4102 8.69075 18.0776 9.0233 18.0776 9.43503C18.0776 9.83092 18.4102 10.1635 18.8377 10.1635C19.2336 10.1635 19.5504 9.84676 19.5504 9.43503C19.5504 9.0233 19.2336 8.69075 18.8377 8.69075ZM14.863 13.869C14.0395 13.869 13.3586 13.1881 13.3586 12.3488C13.3586 11.5254 14.0237 10.8444 14.863 10.8444C15.6864 10.8444 16.3674 11.5254 16.3674 12.3488C16.3674 13.1881 15.6864 13.869 14.863 13.869ZM14.863 11.6045C14.4671 11.6045 14.1345 11.9371 14.1345 12.3488C14.1345 12.7764 14.4671 13.1089 14.863 13.1089C15.2747 13.1089 15.6072 12.7764 15.6072 12.3488C15.6072 11.9688 15.2747 11.6045 14.863 11.6045Z" fill="white"/>
</svg>
