<svg width="25" height="25" viewBox="0 0 25 25" fill="none" xmlns="http://www.w3.org/2000/svg">
<path d="M19.7581 16.9354C18.2017 16.9354 16.9355 18.2016 16.9355 19.758C16.9355 21.3145 18.2017 22.5806 19.7581 22.5806C21.3146 22.5806 22.5807 21.3145 22.5807 19.758C22.5807 18.2016 21.3146 16.9354 19.7581 16.9354ZM19.7581 21.7741C18.6464 21.7741 17.742 20.8697 17.742 19.758C17.742 18.6463 18.6464 17.7419 19.7581 17.7419C20.8698 17.7419 21.7743 18.6463 21.7743 19.758C21.7743 20.8697 20.8698 21.7741 19.7581 21.7741Z" fill="white"/>
<path d="M19.7578 18.5483C19.0908 18.5483 18.5481 19.0911 18.5481 19.758C18.5481 20.4249 19.0908 20.9677 19.7578 20.9677C20.4247 20.9677 20.9674 20.4249 20.9674 19.758C20.9674 19.0911 20.4247 18.5483 19.7578 18.5483ZM19.7578 20.1612C19.5356 20.1612 19.3545 19.9802 19.3545 19.758C19.3545 19.5358 19.5356 19.3548 19.7578 19.3548C19.9799 19.3548 20.161 19.5358 20.161 19.758C20.161 19.9802 19.9799 20.1612 19.7578 20.1612ZM1.05534 10.0806H1.20938V16.129H2.01583V9.27414H1.05534C1.01288 9.27414 0.97112 9.26329 0.934026 9.24263C0.896932 9.22196 0.865735 9.19215 0.843396 9.15604C0.821057 9.11992 0.808318 9.0787 0.806386 9.03628C0.804455 8.99386 0.813396 8.95165 0.832361 8.91366L2.19607 6.18623C2.28115 6.01648 2.55696 6.01648 2.64163 6.18623L4.00534 8.91366C4.02429 8.95162 4.03324 8.99379 4.03132 9.03618C4.02941 9.07857 4.01671 9.11976 3.99442 9.15586C3.97212 9.19197 3.94098 9.22178 3.90394 9.24248C3.8669 9.26318 3.82519 9.27407 3.78276 9.27414H2.82228V16.129H3.62873V10.0806H3.78276C3.96265 10.0804 4.1395 10.0343 4.29657 9.94661C4.45364 9.85894 4.58572 9.73261 4.6803 9.57959C4.77488 9.42658 4.82882 9.25196 4.83701 9.07226C4.84521 8.89256 4.80738 8.71375 4.72712 8.55277L3.36341 5.82575C3.18357 5.46567 2.82188 5.24188 2.41905 5.24188C2.01623 5.24188 1.65454 5.46567 1.4747 5.82535L0.11099 8.55277C0.0307289 8.71375 -0.0070968 8.89256 0.00109664 9.07226C0.00929007 9.25196 0.0632313 9.42658 0.157809 9.57959C0.252387 9.73261 0.384468 9.85894 0.541538 9.94661C0.698607 10.0343 0.875462 10.0804 1.05534 10.0806ZM7.11986 11.1096C7.2997 11.4697 7.66139 11.6935 8.06422 11.6935C8.46704 11.6935 8.82873 11.4697 9.00857 11.11L10.3723 8.38261C10.4525 8.22162 10.4904 8.04281 10.4822 7.86311C10.474 7.68342 10.42 7.50879 10.3255 7.35578C10.2309 7.20277 10.0988 7.07644 9.94173 6.98876C9.78466 6.90109 9.60781 6.85497 9.42793 6.85478H9.27389V0.806396H8.46744V7.66124H9.42793C9.47039 7.66123 9.51215 7.67208 9.54924 7.69275C9.58634 7.71342 9.61754 7.74322 9.63987 7.77934C9.66221 7.81545 9.67495 7.85667 9.67688 7.89909C9.67882 7.94151 9.66987 7.98372 9.65091 8.02172L8.2872 10.7491C8.20212 10.9189 7.92631 10.9189 7.84164 10.7491L6.47793 8.02172C6.45898 7.98376 6.45003 7.94158 6.45195 7.8992C6.45386 7.85681 6.46656 7.81561 6.48886 7.77951C6.51115 7.74341 6.54229 7.71359 6.57933 7.6929C6.61637 7.6722 6.65808 7.6613 6.70051 7.66124H7.66099V0.806396H6.85454V6.85478H6.70051C6.52062 6.85497 6.34377 6.90109 6.1867 6.98876C6.02963 7.07644 5.89755 7.20277 5.80297 7.35578C5.70839 7.50879 5.65445 7.68342 5.64626 7.86311C5.63806 8.04281 5.67589 8.22162 5.75615 8.38261L7.11986 11.1096Z" fill="white"/>
<path d="M22.9839 0H13.3065C12.1948 0 11.2903 0.904436 11.2903 2.01613V12.9206C10.4815 12.9847 9.69844 13.2349 9.00237 13.6518C8.3063 14.0687 7.71607 14.641 7.27782 15.3238C7.27137 15.3238 7.26492 15.3226 7.25806 15.3226C5.61855 15.3226 4.13952 16.3351 3.52702 17.831C3.11 17.7242 2.6741 17.7141 2.25257 17.8014C1.83104 17.8887 1.43504 18.0712 1.09478 18.3349C0.754528 18.5986 0.479018 18.9366 0.289283 19.323C0.0995477 19.7094 0.000602495 20.134 0 20.5645C0 22.121 1.26613 23.3871 2.82258 23.3871H15.9742L16.1935 23.6065C16.378 23.7913 16.6163 23.9131 16.8742 23.9544C17.1321 23.9957 17.3965 23.9544 17.6294 23.8363C17.6834 23.8078 17.743 23.7916 17.8039 23.7889C17.8649 23.7863 17.9257 23.7972 17.9819 23.821C18.0339 23.8435 18.0867 23.8653 18.1391 23.8859C18.252 23.9294 18.3395 24.025 18.3794 24.1472C18.4607 24.3954 18.6184 24.6116 18.8299 24.7648C19.0415 24.9179 19.2961 25.0003 19.5573 25H19.9589C20.2201 25.0003 20.4747 24.9179 20.6863 24.7646C20.8979 24.6113 21.0555 24.3951 21.1367 24.1468C21.1766 24.025 21.2641 23.9298 21.3762 23.8863C21.4294 23.8657 21.4823 23.8444 21.5347 23.8214C21.6444 23.7734 21.773 23.7794 21.8867 23.8367C22.1197 23.9548 22.384 23.9962 22.642 23.9549C22.8999 23.9136 23.1381 23.7918 23.3226 23.6069L23.6069 23.323C23.7919 23.1386 23.9138 22.9003 23.9551 22.6424C23.9964 22.3844 23.955 22.12 23.8367 21.8871C23.8084 21.8331 23.7923 21.7735 23.7897 21.7126C23.787 21.6517 23.7978 21.5909 23.8214 21.5347C23.844 21.4827 23.8657 21.4298 23.8863 21.3774C23.9298 21.2645 24.0254 21.177 24.1476 21.1371C24.3957 21.0556 24.6118 20.8978 24.7649 20.6862C24.918 20.4746 25.0003 20.2201 25 19.9589V2.01613C25 0.904436 24.0956 0 22.9839 0ZM13.3065 0.806452H22.9839C23.6508 0.806452 24.1935 1.34919 24.1935 2.01613V18.3988C24.1774 18.3927 24.1629 18.3847 24.1468 18.379C24.0883 18.3609 24.0346 18.33 23.9896 18.2886C23.9446 18.2471 23.9093 18.1962 23.8863 18.1395C23.8658 18.0862 23.8442 18.0334 23.8214 17.981C23.798 17.9248 23.7872 17.8642 23.7899 17.8033C23.7925 17.7425 23.8085 17.683 23.8367 17.629C23.955 17.3961 23.9964 17.1317 23.9551 16.8737C23.9138 16.6158 23.7919 16.3775 23.6069 16.1931L23.3871 15.9738V2.41935C23.3871 1.9746 23.0254 1.6129 22.5806 1.6129H13.7097C13.2649 1.6129 12.9032 1.9746 12.9032 2.41935V13.0468C12.6382 12.9832 12.3685 12.9404 12.0968 12.919V2.01613C12.0968 1.34919 12.6395 0.806452 13.3065 0.806452ZM16.3629 15.7694C15.7956 14.6633 14.856 13.7932 13.7097 13.3125V12.0968H22.5806V15.556C22.3423 15.529 22.1011 15.5718 21.8867 15.6794C21.8327 15.7079 21.7731 15.724 21.7122 15.7266C21.6513 15.7293 21.5905 15.7184 21.5343 15.6948C21.4822 15.6722 21.4298 15.6506 21.377 15.6298C21.3201 15.6069 21.269 15.5715 21.2274 15.5263C21.1858 15.4811 21.1549 15.4272 21.1367 15.3685C21.0554 15.1204 20.8977 14.9043 20.6861 14.7512C20.4746 14.5981 20.22 14.5158 19.9589 14.5161H19.5573C19.296 14.5159 19.0414 14.5983 18.8298 14.7515C18.6183 14.9048 18.4606 15.121 18.3794 15.3694C18.3613 15.4279 18.3302 15.4817 18.2887 15.5267C18.2471 15.5718 18.196 15.607 18.1391 15.6298C18.0863 15.6504 18.0339 15.6718 17.9815 15.6948C17.9253 15.7183 17.8646 15.7291 17.8037 15.7264C17.7429 15.7238 17.6834 15.7077 17.6294 15.6794C17.4299 15.5784 17.2068 15.5335 16.9837 15.5493C16.7607 15.5651 16.5461 15.6412 16.3629 15.7694ZM22.5806 4.83871H13.7097V2.41935H22.5806V4.83871ZM13.7097 5.64516H22.5806V8.06452H13.7097V5.64516ZM13.7097 8.87097H22.5806V11.2903H13.7097V8.87097ZM0.806452 20.5645C0.806452 19.4528 1.71089 18.5484 2.82258 18.5484C3.09556 18.548 3.36574 18.6035 3.61653 18.7113L4.03548 18.8907L4.1629 18.4532C4.56048 17.0847 5.83347 16.129 7.25806 16.129C7.78869 16.1288 8.31117 16.2595 8.77914 16.5097C9.24712 16.7598 9.64611 17.1216 9.94073 17.5629L10.6109 17.1145C10.044 16.2673 9.17699 15.6666 8.18468 15.4335C8.59982 14.8981 9.13169 14.4645 9.73976 14.1658C10.3478 13.8671 11.0161 13.7111 11.6935 13.7097C13.4569 13.7097 15.0613 14.7738 15.7601 16.3782C15.6362 16.5605 15.5634 16.7727 15.5493 16.9927C15.5352 17.2126 15.5803 17.4324 15.6798 17.629C15.7375 17.7427 15.7427 17.871 15.6952 17.9815C15.6726 18.0335 15.6508 18.0863 15.6302 18.1387C15.5867 18.2516 15.4911 18.3391 15.369 18.379C15.1207 18.4604 14.9046 18.6182 14.7514 18.8298C14.5982 19.0414 14.5159 19.296 14.5161 19.5573V19.9589C14.5159 20.2201 14.5983 20.4747 14.7515 20.6863C14.9048 20.8979 15.121 21.0555 15.3694 21.1367C15.4911 21.1766 15.5863 21.2641 15.6298 21.3762C15.6504 21.4294 15.6718 21.4823 15.6948 21.5347C15.7182 21.5909 15.7289 21.6516 15.7263 21.7124C15.7236 21.7732 15.7076 21.8327 15.6794 21.8867C15.5718 22.1011 15.5289 22.3423 15.556 22.5806H2.82258C1.71089 22.5806 0.806452 21.6762 0.806452 20.5645ZM24.1935 19.9589C24.1935 20.1464 24.0738 20.3117 23.8952 20.3706C23.7233 20.4258 23.5659 20.5185 23.4344 20.6421C23.3029 20.7657 23.2005 20.917 23.1347 21.0851C23.1177 21.1282 23.1 21.1714 23.0819 21.2133C23.011 21.3781 22.9773 21.5565 22.9834 21.7358C22.9895 21.9151 23.0351 22.0908 23.1169 22.2504C23.2016 22.4177 23.1694 22.6194 23.0367 22.752L22.7524 23.0363C22.688 23.1009 22.6047 23.1435 22.5146 23.1579C22.4245 23.1723 22.3322 23.1578 22.2508 23.1165C22.0913 23.0346 21.9156 22.989 21.7364 22.983C21.5572 22.9769 21.3788 23.0105 21.2141 23.0815C21.1718 23.0996 21.1286 23.1173 21.0847 23.1347C20.9167 23.2007 20.7655 23.3032 20.642 23.4348C20.5185 23.5663 20.4258 23.7237 20.3706 23.8956C20.3422 23.9823 20.287 24.0579 20.2131 24.1114C20.1391 24.1649 20.0502 24.1937 19.9589 24.1935H19.5573C19.3698 24.1935 19.2044 24.0738 19.1456 23.8952C19.0904 23.7233 18.9976 23.5659 18.874 23.4344C18.7504 23.3029 18.5991 23.2005 18.431 23.1347C18.388 23.1178 18.3453 23.1002 18.3028 23.0819C18.152 23.016 17.9892 22.9821 17.8246 22.9823C17.6339 22.9823 17.4427 23.0274 17.2657 23.1165C17.098 23.2008 16.8964 23.169 16.7641 23.0363L16.4798 22.752C16.4152 22.6876 16.3727 22.6043 16.3583 22.5142C16.3438 22.4241 16.3583 22.3318 16.3996 22.2504C16.4815 22.0909 16.5271 21.9152 16.5332 21.736C16.5392 21.5568 16.5056 21.3784 16.4347 21.2137C16.4163 21.1708 16.3986 21.1277 16.3815 21.0843C16.3155 20.9163 16.213 20.7651 16.0814 20.6416C15.9498 20.5181 15.7924 20.4254 15.6206 20.3702C15.5338 20.3419 15.4582 20.2869 15.4046 20.213C15.3511 20.1391 15.3224 20.0501 15.3226 19.9589V19.5573C15.3226 19.3698 15.4423 19.2044 15.6206 19.1456C15.7925 19.0904 15.95 18.9977 16.0816 18.8741C16.2132 18.7505 16.3156 18.5992 16.3815 18.431C16.3984 18.3879 16.4161 18.3448 16.4343 18.3028C16.5052 18.138 16.5388 17.9596 16.5327 17.7803C16.5267 17.6011 16.4811 17.4253 16.3992 17.2657C16.3145 17.0984 16.3468 16.8964 16.4794 16.7637L16.7633 16.4798C16.896 16.3468 17.0976 16.3141 17.2653 16.3996C17.4249 16.4815 17.6005 16.5271 17.7797 16.5332C17.959 16.5392 18.1373 16.5056 18.302 16.4347C18.3448 16.4161 18.3879 16.3984 18.431 16.3819C18.599 16.3158 18.7502 16.2132 18.8738 16.0817C18.9973 15.9501 19.0902 15.7927 19.1456 15.621C19.204 15.4423 19.3698 15.3226 19.5573 15.3226H19.9589C20.1464 15.3226 20.3117 15.4423 20.3706 15.621C20.4258 15.7927 20.5186 15.95 20.6421 16.0816C20.7656 16.2131 20.9167 16.3155 21.0847 16.3815C21.1278 16.3984 21.171 16.4161 21.2133 16.4343C21.3781 16.5051 21.5565 16.5387 21.7358 16.5326C21.915 16.5265 22.0908 16.481 22.2504 16.3992C22.4177 16.3141 22.6194 16.3468 22.7524 16.4794L23.0363 16.7633C23.169 16.896 23.2012 17.098 23.1165 17.2653C23.0346 17.4249 22.989 17.6005 22.983 17.7797C22.9769 17.959 23.0105 18.1373 23.0815 18.302C23.0996 18.3444 23.1173 18.3875 23.1347 18.4315C23.2007 18.5994 23.3032 18.7506 23.4348 18.8741C23.5663 18.9976 23.7237 19.0904 23.8956 19.1456C24.0738 19.204 24.1935 19.3698 24.1935 19.5573V19.7581V19.9589Z" fill="white"/>
<path d="M14.5167 3.22583H15.3232V4.03228H14.5167V3.22583ZM16.1296 3.22583H16.9361V4.03228H16.1296V3.22583ZM14.5167 9.67744H15.3232V10.4839H14.5167V9.67744ZM16.1296 9.67744H16.9361V10.4839H16.1296V9.67744ZM20.9683 6.45164H21.7748V7.25809H20.9683V6.45164ZM19.3554 6.45164H20.1619V7.25809H19.3554V6.45164ZM20.9683 12.9032H21.7748V13.7097H20.9683V12.9032ZM19.3554 12.9032H20.1619V13.7097H19.3554V12.9032ZM11.6941 14.5162C11.3869 14.5162 11.0816 14.5545 10.7869 14.6307L10.9881 15.4117C11.2187 15.3523 11.456 15.3224 11.6941 15.3226C12.3201 15.3222 12.9284 15.53 13.4234 15.9132C13.9183 16.2964 14.2717 16.8334 14.428 17.4395L15.2091 17.2383C15.0081 16.459 14.5538 15.7686 13.9174 15.2757C13.2811 14.7829 12.499 14.5157 11.6941 14.5162ZM7.25866 16.9355C6.70121 16.9367 6.16117 17.1298 5.72937 17.4824C5.29757 17.8349 5.00035 18.3254 4.8877 18.8714L5.67802 19.0319C5.75316 18.668 5.95135 18.3411 6.23922 18.1062C6.52709 17.8712 6.8871 17.7426 7.25866 17.742C7.50933 17.741 7.75671 17.7989 7.9809 17.911C8.20509 18.0232 8.39981 18.1864 8.54939 18.3875L9.19415 17.9032C8.96978 17.6017 8.67776 17.3571 8.3416 17.189C8.00543 17.0209 7.6345 16.9341 7.25866 16.9355Z" fill="white"/>
</svg>
