<svg width="29" height="36" viewBox="0 0 29 36" fill="none" xmlns="http://www.w3.org/2000/svg">
<path d="M17.0488 18.6971C18.0276 18.6971 18.9845 18.4068 19.7984 17.863C20.6123 17.3192 21.2467 16.5462 21.6212 15.6419C21.9958 14.7375 22.0938 13.7424 21.9029 12.7824C21.7119 11.8223 21.2406 10.9404 20.5484 10.2483C19.8562 9.55614 18.9744 9.08477 18.0143 8.89381C17.0543 8.70284 16.0592 8.80085 15.1548 9.17544C14.2505 9.55003 13.4775 10.1844 12.9337 10.9983C12.3899 11.8122 12.0996 12.769 12.0996 13.7479C12.1012 15.06 12.6232 16.3179 13.551 17.2457C14.4788 18.1735 15.7367 18.6955 17.0488 18.6971ZM17.0488 9.89853C17.8101 9.89853 18.5544 10.1243 19.1874 10.5473C19.8204 10.9702 20.3138 11.5714 20.6051 12.2748C20.8965 12.9782 20.9727 13.7522 20.8242 14.4989C20.6757 15.2456 20.3091 15.9315 19.7707 16.4698C19.2324 17.0081 18.5465 17.3748 17.7998 17.5233C17.0531 17.6718 16.2791 17.5956 15.5757 17.3042C14.8723 17.0129 14.2711 16.5195 13.8482 15.8865C13.4252 15.2535 13.1994 14.5092 13.1994 13.7479C13.2006 12.7273 13.6065 11.7489 14.3282 11.0273C15.0498 10.3056 16.0282 9.89969 17.0488 9.89853Z" fill="white"/>
<path d="M16.0184 15.4202C16.0694 15.4713 16.1301 15.5119 16.1968 15.5395C16.2636 15.5672 16.3352 15.5815 16.4074 15.5815C16.4797 15.5815 16.5512 15.5672 16.618 15.5395C16.6848 15.5119 16.7454 15.4713 16.7965 15.4202L19.3624 12.8538C19.4135 12.8027 19.454 12.7421 19.4817 12.6754C19.5093 12.6086 19.5236 12.5371 19.5236 12.4649C19.5236 12.3927 19.5094 12.3211 19.4818 12.2544C19.4542 12.1876 19.4137 12.127 19.3626 12.0759C19.3116 12.0248 19.251 11.9843 19.1842 11.9566C19.1175 11.929 19.046 11.9147 18.9738 11.9147C18.9015 11.9146 18.83 11.9288 18.7633 11.9565C18.6965 11.9841 18.6359 12.0246 18.5848 12.0756L16.4071 14.2533L15.513 13.3591C15.4093 13.259 15.2704 13.2035 15.1262 13.2048C14.982 13.206 14.8441 13.2639 14.7421 13.3658C14.6402 13.4678 14.5823 13.6057 14.5811 13.7499C14.5798 13.8941 14.6353 14.033 14.7354 14.1367L16.0184 15.4202Z" fill="white"/>
<path d="M0.00171881 20.6218C-0.00275318 21.4898 0.310979 22.3293 0.88359 22.9817C1.4562 23.634 2.248 24.054 3.10926 24.1621C3.17072 24.1847 3.23569 24.1962 3.30117 24.1962H8.27785C7.58656 25.2765 7.19863 26.5229 7.15473 27.8047C7.11083 29.0865 7.41258 30.3565 8.02834 31.4815C8.6441 32.6066 9.5512 33.5453 10.6545 34.1992C11.7579 34.8531 13.0168 35.1982 14.2994 35.1982C15.5819 35.1982 16.8409 34.8531 17.9442 34.1992C19.0475 33.5453 19.9546 32.6066 20.5704 31.4815C21.1861 30.3565 21.4879 29.0865 21.444 27.8047C21.4001 26.5229 21.0122 25.2765 20.3209 24.1962H24.1977C24.2555 24.1961 24.3129 24.1866 24.3677 24.1681C25.5468 24.0556 26.6391 23.4993 27.4235 22.6118C28.208 21.7243 28.626 20.572 28.593 19.388C28.5599 18.204 28.0783 17.0767 27.2455 16.2344C26.4128 15.3921 25.2911 14.8976 24.1075 14.851C24.1671 14.4863 24.1973 14.1174 24.1977 13.7479C24.2004 12.1957 23.697 10.6849 22.7637 9.44462C21.8305 8.2043 20.5183 7.30207 19.0261 6.87468C17.5339 6.44729 15.943 6.51804 14.4946 7.07621C13.0463 7.63439 11.8194 8.64955 10.9999 9.96781V5.49925H11.2529C11.5056 5.49978 11.7538 5.43156 11.9708 5.30191C12.1878 5.17225 12.3655 4.98603 12.4848 4.76318C12.6041 4.54032 12.6605 4.28922 12.6481 4.03675C12.6357 3.78427 12.5549 3.53993 12.4143 3.32985L10.6628 0.705687C10.5197 0.48913 10.3251 0.311363 10.0966 0.188233C9.86806 0.0651031 9.6126 0.00043778 9.35301 2.21504e-06C9.09341 -0.00043335 8.83774 0.0633744 8.60879 0.185737C8.37984 0.308099 8.18473 0.485213 8.04084 0.701288L6.28113 3.33425C6.14168 3.54467 6.06195 3.78898 6.05045 4.04115C6.03895 4.29332 6.09611 4.54388 6.21583 4.76611C6.33556 4.98834 6.51336 5.17391 6.73027 5.30302C6.94718 5.43214 7.19506 5.49996 7.44749 5.49925H7.70045V12.1306C6.67698 12.2457 5.71537 12.6788 4.9509 13.369V9.34861H5.20386C5.45664 9.34914 5.70481 9.28093 5.9218 9.15127C6.1388 9.02162 6.31646 8.8354 6.43577 8.61254C6.55507 8.38969 6.61154 8.13859 6.59912 7.88611C6.5867 7.63364 6.50587 7.38929 6.36527 7.17922L4.61381 4.55505C4.47065 4.3385 4.27613 4.16073 4.0476 4.0376C3.81906 3.91447 3.5636 3.8498 3.304 3.84937C3.04441 3.84893 2.78874 3.91274 2.55979 4.0351C2.33084 4.15746 2.13572 4.33458 1.99184 4.55065L0.232131 7.18362C0.0926767 7.39403 0.0129481 7.63835 0.00144821 7.89051C-0.0100517 8.14268 0.0471083 8.39324 0.166832 8.61547C0.286556 8.8377 0.464353 9.02327 0.681263 9.15239C0.898173 9.2815 1.14606 9.34932 1.39849 9.34861H1.65145V17.6143C1.14635 17.9371 0.730532 18.3817 0.442249 18.9072C0.153967 19.4327 0.00247766 20.0223 0.00171881 20.6218ZM20.3484 28.0455C20.3492 29.0164 20.1164 29.9732 19.6696 30.8351C19.2228 31.697 18.5751 32.4387 17.7812 32.9975C16.9873 33.5563 16.0706 33.9158 15.1085 34.0457C14.1463 34.1755 13.1671 34.0719 12.2535 33.7436C11.3399 33.4152 10.5187 32.8718 9.85935 32.1592C9.20001 31.4466 8.72188 30.5857 8.46535 29.6494C8.20882 28.7131 8.18143 27.7287 8.3855 26.7796C8.58956 25.8304 9.01909 24.9443 9.63778 24.1962H11.1957C10.3979 24.8385 9.81898 25.7125 9.53887 26.6977C9.25875 27.6829 9.29119 28.7307 9.63172 29.6967C9.97224 30.6627 10.6041 31.4992 11.4401 32.0909C12.2761 32.6826 13.2751 33.0004 14.2994 33.0004C15.3236 33.0004 16.3226 32.6826 17.1586 32.0909C17.9946 31.4992 18.6265 30.6627 18.967 29.6967C19.3075 28.7307 19.34 27.6829 19.0599 26.6977C18.7797 25.7125 18.2009 24.8385 17.4031 24.1962H18.9609C19.8581 25.2783 20.3488 26.6399 20.3484 28.0455ZM14.2994 24.1962C15.0607 24.1962 15.8049 24.4219 16.438 24.8449C17.071 25.2679 17.5644 25.8691 17.8557 26.5724C18.1471 27.2758 18.2233 28.0498 18.0748 28.7965C17.9262 29.5432 17.5596 30.2291 17.0213 30.7674C16.4829 31.3058 15.797 31.6724 15.0503 31.8209C14.3036 31.9695 13.5297 31.8932 12.8263 31.6019C12.1229 31.3105 11.5217 30.8171 11.0987 30.1841C10.6758 29.5511 10.45 28.8069 10.45 28.0455C10.4512 27.025 10.8571 26.0465 11.5787 25.3249C12.3004 24.6033 13.2788 24.1973 14.2994 24.1962ZM7.44749 4.39943C7.36874 4.39943 7.2932 4.36814 7.23752 4.31245C7.18183 4.25676 7.15054 4.18123 7.15054 4.10248C7.1513 4.04472 7.16867 3.9884 7.20058 3.94025L8.96029 1.30729C9.00682 1.24701 9.06662 1.19829 9.13506 1.1649C9.20349 1.13151 9.2787 1.11436 9.35484 1.11479C9.43098 1.11521 9.506 1.1332 9.57405 1.16735C9.64211 1.2015 9.70136 1.2509 9.74721 1.31169L11.4948 3.93585C11.5289 3.98429 11.548 4.04164 11.5498 4.10083C11.5498 4.17958 11.5185 4.25511 11.4628 4.3108C11.4072 4.36649 11.3316 4.39778 11.2529 4.39778H10.45C10.3042 4.39778 10.1643 4.45571 10.0612 4.55884C9.95802 4.66197 9.90009 4.80184 9.90009 4.94769V12.3891C9.54446 12.262 9.17545 12.176 8.80027 12.1328V4.94934C8.80027 4.80349 8.74233 4.66362 8.6392 4.56049C8.53608 4.45736 8.3962 4.39943 8.25036 4.39943H7.44749ZM1.39849 8.24879C1.31973 8.24879 1.2442 8.21751 1.18851 8.16182C1.13282 8.10613 1.10154 8.0306 1.10154 7.95184C1.10177 7.89315 1.11916 7.8358 1.15158 7.78687L2.91129 5.1539C2.95781 5.09363 3.01762 5.0449 3.08605 5.01151C3.15448 4.97812 3.2297 4.96098 3.30584 4.9614C3.38198 4.96183 3.457 4.97982 3.52505 5.01397C3.5931 5.04812 3.65236 5.09751 3.69821 5.1583L5.44582 7.78522C5.47988 7.83366 5.49899 7.89101 5.50081 7.95019C5.50081 8.02895 5.46953 8.10448 5.41384 8.16017C5.35815 8.21586 5.28262 8.24714 5.20386 8.24714H4.40099C4.25515 8.24714 4.11528 8.30508 4.01215 8.40821C3.90902 8.51134 3.85108 8.65121 3.85108 8.79705V14.7927C3.49028 15.4895 3.30171 16.2627 3.30117 17.0473V17.0578C3.11577 17.073 2.93188 17.1029 2.75127 17.1474V8.7987C2.75127 8.65286 2.69333 8.51299 2.5902 8.40986C2.48707 8.30673 2.3472 8.24879 2.20136 8.24879H1.39849ZM3.57613 18.1472C3.66043 18.1469 3.74469 18.1511 3.82854 18.1598C3.9108 18.1694 3.99417 18.1602 4.07231 18.1327C4.15045 18.1053 4.2213 18.0604 4.27946 18.0014C4.33777 17.9428 4.3821 17.8717 4.40914 17.7935C4.43618 17.7154 4.44524 17.6321 4.43564 17.55C4.41435 17.3832 4.40278 17.2154 4.40099 17.0473C4.39984 16.3689 4.5783 15.7023 4.91824 15.1153C5.25817 14.5282 5.74746 14.0416 6.33639 13.7048C6.92532 13.3681 7.59289 13.1933 8.27127 13.1982C8.94964 13.203 9.61464 13.3874 10.1987 13.7325C10.2097 13.7391 10.2223 13.7418 10.2339 13.7473H10.2377C10.3181 13.7875 10.4071 13.8072 10.4969 13.8046C10.5867 13.8021 10.6745 13.7774 10.7524 13.7328C10.8304 13.6882 10.8961 13.625 10.9438 13.5489C10.9915 13.4728 11.0196 13.386 11.0258 13.2964C11.0849 12.456 11.3191 11.6372 11.7133 10.8926C12.1075 10.148 12.6531 9.49411 13.315 8.97281C13.9768 8.45151 14.7404 8.07436 15.5566 7.86556C16.3728 7.65676 17.2237 7.62093 18.0546 7.76037C18.8855 7.89981 19.678 8.21143 20.3814 8.67524C21.0847 9.13905 21.6833 9.7448 22.1388 10.4536C22.5942 11.1624 22.8964 11.9586 23.026 12.7911C23.1555 13.6236 23.1096 14.4739 22.8911 15.2876C22.8679 15.3751 22.8666 15.4669 22.8873 15.555C22.9081 15.6431 22.9502 15.7247 23.0101 15.7926C23.0699 15.8604 23.1455 15.9125 23.2303 15.9441C23.3151 15.9758 23.4064 15.986 23.496 15.9739C23.6376 15.9557 23.7801 15.9469 23.9228 15.9475C24.8499 15.9461 25.7413 16.3054 26.4083 16.9494C27.0753 17.5933 27.4657 18.4715 27.4968 19.3981C27.5279 20.3248 27.1974 21.2272 26.5752 21.9145C25.9529 22.6018 25.0877 23.0201 24.1625 23.0809C24.1299 23.0829 24.0974 23.0881 24.0658 23.0963H3.4359C3.40772 23.0894 3.37904 23.0846 3.35012 23.082C2.72339 23.015 2.14584 22.7114 1.73534 22.2331C1.32484 21.7548 1.11233 21.1379 1.14116 20.5083C1.17 19.8786 1.43802 19.2837 1.89052 18.8449C2.34302 18.4062 2.9459 18.1566 3.57613 18.1472Z" fill="white"/>
<path d="M14.2992 28.5955C14.4001 28.5949 14.4992 28.6222 14.5856 28.6742C14.6721 28.7262 14.7425 28.801 14.7893 28.8904C14.8361 28.9798 14.8574 29.0804 14.8508 29.1811C14.8443 29.2818 14.8101 29.3787 14.7522 29.4613C14.6942 29.5439 14.6146 29.6089 14.5222 29.6493C14.4297 29.6897 14.3279 29.7039 14.228 29.6903C14.128 29.6767 14.0337 29.6358 13.9554 29.5722C13.877 29.5086 13.8177 29.4247 13.7839 29.3296C13.7607 29.2605 13.7239 29.1968 13.6758 29.1421C13.6277 29.0874 13.5692 29.0428 13.5037 29.0108C13.4382 28.9789 13.367 28.9604 13.2943 28.9562C13.2215 28.952 13.1487 28.9624 13.08 28.9866C13.0112 29.0108 12.948 29.0485 12.894 29.0973C12.8399 29.1462 12.7961 29.2053 12.7652 29.2713C12.7342 29.3372 12.7166 29.4086 12.7134 29.4814C12.7103 29.5542 12.7216 29.6269 12.7468 29.6953C12.8477 29.9805 13.025 30.2326 13.2595 30.4238C13.494 30.6151 13.7765 30.7381 14.0763 30.7796C14.376 30.821 14.6813 30.7792 14.9589 30.6587C15.2365 30.5383 15.4756 30.3438 15.65 30.0966C15.8245 29.8494 15.9276 29.559 15.9481 29.2571C15.9686 28.9552 15.9057 28.6535 15.7662 28.385C15.6268 28.1165 15.4162 27.8915 15.1574 27.7346C14.8987 27.5778 14.6018 27.4951 14.2992 27.4956C14.1983 27.4962 14.0992 27.4689 14.0128 27.4169C13.9263 27.3649 13.8558 27.2901 13.8091 27.2007C13.7623 27.1113 13.741 27.0107 13.7476 26.91C13.7541 26.8093 13.7883 26.7124 13.8462 26.6298C13.9042 26.5472 13.9838 26.4822 14.0762 26.4418C14.1687 26.4014 14.2705 26.3872 14.3704 26.4008C14.4704 26.4144 14.5647 26.4553 14.643 26.5189C14.7214 26.5825 14.7807 26.6664 14.8145 26.7615C14.8377 26.8306 14.8745 26.8943 14.9226 26.949C14.9707 27.0037 15.0292 27.0483 15.0947 27.0803C15.1602 27.1122 15.2314 27.1307 15.3041 27.1349C15.3769 27.1391 15.4497 27.1287 15.5184 27.1045C15.5872 27.0803 15.6504 27.0427 15.7044 26.9938C15.7585 26.9449 15.8022 26.8858 15.8332 26.8199C15.8642 26.7539 15.8818 26.6825 15.885 26.6097C15.8881 26.5369 15.8768 26.4642 15.8516 26.3958C15.7507 26.1106 15.5734 25.8585 15.3389 25.6673C15.1044 25.476 14.8218 25.353 14.5221 25.3115C14.2224 25.2701 13.917 25.3119 13.6395 25.4324C13.3619 25.5528 13.1228 25.7473 12.9484 25.9945C12.7739 26.2417 12.6708 26.5321 12.6503 26.834C12.6298 27.1359 12.6927 27.4376 12.8322 27.7061C12.9716 27.9746 13.1822 28.1996 13.441 28.3565C13.6997 28.5133 13.9966 28.596 14.2992 28.5955ZM23.9226 21.9965C24.5787 21.9958 25.2077 21.7349 25.6716 21.271C26.1355 20.807 26.3965 20.178 26.3972 19.522C26.3972 19.3761 26.3393 19.2362 26.2361 19.1331C26.133 19.03 25.9931 18.972 25.8473 18.972C25.7014 18.972 25.5616 19.03 25.4584 19.1331C25.3553 19.2362 25.2974 19.3761 25.2974 19.522C25.2974 19.8866 25.1525 20.2362 24.8947 20.4941C24.6369 20.7519 24.2872 20.8967 23.9226 20.8967C23.7768 20.8967 23.6369 20.9547 23.5338 21.0578C23.4306 21.1609 23.3727 21.3008 23.3727 21.4466C23.3727 21.5925 23.4306 21.7324 23.5338 21.8355C23.6369 21.9386 23.7768 21.9965 23.9226 21.9965Z" fill="white"/>
</svg>
