<svg width="31" height="28" viewBox="0 0 31 28" fill="none" xmlns="http://www.w3.org/2000/svg">
<path d="M11.9035 27.6507C18.4776 27.6507 23.807 22.3214 23.807 15.7472C23.807 9.17312 18.4776 3.84375 11.9035 3.84375C5.32937 3.84375 0 9.17312 0 15.7472C0 22.3214 5.32937 27.6507 11.9035 27.6507Z" fill="#E53023" fill-opacity="0.15"/>
<path d="M12.0379 24.9477L11.8869 24.6904C9.58062 20.761 3.45207 12.4223 3.39016 12.3385L3.30176 12.2184L5.38972 10.1549L11.9991 14.77C16.1605 9.36998 20.0428 5.66097 22.5753 3.49505C25.3455 1.12575 27.1488 0.0349985 27.167 0.0245462L27.208 0H30.7498L30.4115 0.301296C21.7105 8.05124 12.2795 24.523 12.1856 24.6885L12.0379 24.9477Z" fill="#E53023"/>
</svg>
